<svg width="18" height="15" viewBox="0 0 18 15" fill="none" xmlns="http://www.w3.org/2000/svg">
<path d="M12 0.184259C13.7486 -0.317212 14.3829 0.268893 15 1.17154C15.72 0.970952 17.28 1.37213 18 1.17154C18 1.97389 17.4114 1.95823 17 2.15882C17.72 2.35941 18 2.15882 18 2.15882C17.7943 3.16176 16.6171 3.8325 16 4.13338C15.7943 10.7528 13.3029 15.1941 6 14.9935C5.48571 14.9935 5.61714 14.9935 5 14.9935C4.58857 14.9935 0.72 14.423 0 13.0189C2.36571 13.2195 4.17714 12.7337 5 12.0316C3.97143 11.7307 2.30857 11.4768 2 9.06979C2.41143 9.17008 2.28 9.17008 3 9.06979C1.76571 8.26743 0.897143 7.32714 1 5.12066C1.30857 5.42155 1.69143 6.10794 2 6.10794C1.28 5.90736 -0.131429 2.67595 1 1.17154C2.95429 2.97684 5.29714 4.92008 9 5.12066C9.10286 2.8139 10.1486 0.786024 12 0.184259Z" fill="white"/>
</svg>
