<svg width="40" height="35" viewBox="0 0 40 35" fill="none" xmlns="http://www.w3.org/2000/svg">
<path d="M38 23H2C0.740157 23 0 23.7948 0 25V27C0 28.2052 0.740157 29 2 29H3V30C3 32.8821 5.16535 35 8 35H32C34.8871 35 37 32.8297 37 30V29H38C39.2073 29 40 28.2576 40 27V25C40 23.8472 39.2598 23 38 23ZM36 30C36 31.9913 33.9948 33 32 33H8C6.00525 33 4 31.9913 4 30V29H36V30ZM38 27C38 27.3668 38.3675 28 38 28H2C1.63255 28 2 27.3668 2 27V25C2 24.6856 1.63255 25 2 25H38C38.3675 25 38 24.6332 38 25V27Z" fill="#81B3D2"/>
<path d="M8 19L11 21L14 19L17 21L20 19L22 21L25 19L28 21L31 19L34 21L37 19L36 17L34 19L31 17L28 19L25 17L22 19L20 17L17 19L14 17L11 19L8 17L5 19L3 17L2 19L5 21L8 19Z" fill="#81B3D2"/>
<path d="M37.9764 16C37.9764 15.6913 38.0295 14.2058 37.9764 14C37.6042 5.97428 30.398 0 20.9878 0C11.5777 0 3.37215 5.97428 3 14C3 14.2058 3 15.6913 3 16H37.9764ZM20.9878 2C29.4942 2 35.6587 6.84888 35.9777 14H4.99865C5.3708 6.84888 12.4815 2 20.9878 2Z" fill="#81B3D2"/>
<path d="M20 9C20.5523 9 21 8.55228 21 8C21 7.44772 20.5523 7 20 7C19.4477 7 19 7.44772 19 8C19 8.55228 19.4477 9 20 9Z" fill="#81B3D2"/>
<path d="M16 6C16.5523 6 17 5.55228 17 5C17 4.44772 16.5523 4 16 4C15.4477 4 15 4.44772 15 5C15 5.55228 15.4477 6 16 6Z" fill="#81B3D2"/>
<path d="M24 6C24.5523 6 25 5.55228 25 5C25 4.44772 24.5523 4 24 4C23.4477 4 23 4.44772 23 5C23 5.55228 23.4477 6 24 6Z" fill="#81B3D2"/>
</svg>
