<svg width="282" height="214" viewBox="0 0 282 214" fill="none" xmlns="http://www.w3.org/2000/svg">
<path d="M101.016 43C100.204 43.9228 99.9162 44 99.0467 44L100.031 41C101.074 39.093 100.67 38 99.0467 38C97.7136 38 96.0944 38.1545 95.1091 40L94.1246 42V43C92.8495 44.5379 90.9405 46 90.187 46C89.7812 46 89.7812 45.6767 90.187 45L94.1246 38H95.1091L96.0935 37H94.1246L96.0935 34H94.1246L92.1558 37H91.1714L90.187 38H92.1558L88.2181 44C87.4646 45.3534 88.7959 47 90.187 47C91.1723 47 92.0969 46.1073 93.1402 45C93.1402 47.3376 96.2076 47.5222 98.0623 45C99.1056 45 101.131 45.1073 102 44C102 43.6924 101.247 43.123 101.016 43ZM98.0623 43C97.4827 43 96.0935 43.3848 96.0935 44C96.0935 44.2461 96.962 44.8154 97.0779 45C96.2664 46.4764 94.1237 45.9685 95.1091 44L96.0935 42L97.0779 40C98.2951 37.7854 100.09 39.093 99.0467 41L98.0623 43Z" fill="#766458"/>
<path d="M127.008 43C125.675 44.5403 124.324 46 123.051 46C121.961 46 121.274 45.4787 122.062 44V43C123.214 43.4929 125.675 43.4028 127.008 41C127.977 39.2749 127.534 38 126.019 38C124.564 38 122.85 38.6445 122.062 40L121.073 43H120.084C118.751 44.5403 117.905 46 117.117 46C116.693 46 116.693 45.6777 117.117 45L119.095 40C119.883 38.5829 119.136 38 118.106 38C117.318 38 117.037 38.0142 116.128 39L119.095 34H117.117L112.171 43C110.838 44.5403 109.003 46 108.215 46C107.791 46 107.791 45.6777 108.215 45L112.171 38H113.16L114.149 37H113.16L114.149 34H112.171L111.182 37H109.204L108.215 38H110.193L106.237 44C105.449 45.3555 106.761 47 108.215 47C108.942 47 109.405 46.6161 110.193 46L109.204 47H111.182L114.149 42C116.937 38.4265 117.844 38.6445 117.117 40L115.139 44C114.351 45.3555 114.673 47 116.128 47C117.218 47 118.993 46.109 120.084 45C120.145 46.1706 120.608 47 122.062 47C124.123 47 126.542 45.7867 127.997 44C128.057 43.6303 127.25 43.1232 127.008 43ZM124.04 40C125.071 38.1517 127.109 39.09 126.019 41C125.17 42.4787 123.718 42.2464 123.051 42L124.04 40Z" fill="#766458"/>
<path d="M194 42.9719C193.322 43.7628 192.739 44.4163 192 44.9638C192.616 43.1995 192.829 40.3647 194 37.992H192C191.261 39.0262 189.725 41.025 188 42.9719C186.645 44.4929 185.801 45.9598 185 45.9598C184.569 45.9598 183.569 45.6331 184 44.9638L188 37.992H186L183 43.9679C181.583 45.2455 180.37 46.0815 180 45.9598C179.569 45.7773 180.754 44.3937 181 43.9679L184 37.992H182L179 42.9719C178.137 43.8845 177.924 44.9638 177 44.9638L178 41.9759C179.109 40.0898 178.725 37.992 177 37.992C175.583 37.992 174.047 38.1587 173 39.9839L172 41.9759L171 42.9719C169.645 44.4929 168.294 45.9598 167 45.9598C165.891 45.9598 165.199 45.428 166 43.9679V42.9719C167.171 43.4586 169.645 43.3527 171 40.9799C171.986 39.2764 171.54 37.992 170 37.992C168.521 37.992 166.801 38.6454 166 39.9839L164 42.9719C162.46 44.7362 161.479 46.3474 160 46.9558L164 39.9839H163C163 39.2538 162.109 37.992 161 37.992C160.014 37.992 158.739 38.6454 158 39.9839L156 42.9719C154.645 44.4929 153.801 45.9598 153 45.9598C152.569 45.9598 151.569 45.6331 152 44.9638L154 41.9759C154.616 40.8808 154.555 39.718 154 38.9879L153 37.992C152.754 37.6878 152.63 37.3002 153 36.996L152 36C150.953 36.9126 151.384 38.1362 152 38.9879C151.199 40.1439 150.232 41.5726 149 42.9719C148.137 43.8845 146.924 44.9638 146 44.9638L147 41.9759C148.109 40.0898 147.725 37.992 146 37.992C144.583 37.992 143.047 38.1587 142 39.9839L141 41.9759V42.9719H140C138.46 44.7362 137.479 46.3474 136 46.9558L140 39.9839H139C139 39.2538 138.109 37.992 137 37.992C136.014 37.992 134.739 38.6454 134 39.9839L132 44.9638C131.199 46.3023 131.521 46.9558 133 46.9558C133.493 46.9558 134.322 47.3208 135 46.9558H134C131.536 47.6859 130 49.6012 130 50.9397C130 52.7041 132.645 52.1948 134 49.9437L135 47.9518C136.479 47.5259 138.46 46.3632 140 44.9638C140 47.2758 143.028 48.4543 145 45.9598H146C147.109 45.9598 148.076 45.063 149 43.9679C149.863 42.9336 150.521 41.9308 152 39.9839H153C153.246 40.2881 153.185 40.6149 153 40.9799L151 44.9638C150.199 46.3023 150.521 46.9558 152 46.9558C152.924 46.9558 154.014 46.8116 155 45.9598C155 46.8116 155.953 46.9558 157 46.9558C157.493 46.9558 157.322 47.3208 158 46.9558C155.536 47.6859 154 48.6053 154 49.9437C154 51.7081 156.645 52.1948 158 49.9437L159 47.9518C160.479 47.4651 162.46 46.424 164 44.9638C164.062 46.1198 164.46 46.9558 166 46.9558C167.479 46.9558 169.768 46.059 171 44.9638C170.938 47.3366 174.028 48.4543 176 45.9598C176.555 45.9598 177.322 45.3289 178 44.9638C177.507 46.2415 177.953 46.9558 179 46.9558C179.986 46.9558 181.137 45.8156 182 44.9638C181.815 45.9373 182.829 46.9558 184 46.9558C185.54 46.9558 187.46 45.7322 189 43.9679C190.047 42.7511 190.322 40.8357 191 39.9839C190.261 41.87 190.787 45.9598 189 45.9598C188.384 45.9598 188 44.9638 188 44.9638L187 45.9598C187 45.9598 187.275 46.9558 189 46.9558C189.185 46.9558 189.815 47.0166 190 46.9558C191.91 46.7124 193.645 45.5497 195 43.9679C194.938 43.6637 194.308 43.0327 194 42.9719ZM168 39.9839C169.047 38.1587 171.109 39.0939 170 40.9799H169C168.137 42.4401 167.678 43.2152 167 42.9719L168 39.9839ZM133 49.9437C132.63 50.613 132 50.4913 132 49.9437C132 49.457 132.583 49.4953 134 48.9478L133 49.9437ZM134 45.9598C133.569 45.9598 132.569 45.6331 133 44.9638L136 39.9839C136.986 38.2804 138.924 39.3372 138 40.9799L137 42.9719C135.891 44.7362 134.739 45.9598 134 45.9598ZM145 42.9719C144.384 42.9719 144 43.3595 144 43.9679C144 44.2112 143.877 44.7813 144 44.9638C143.137 46.424 140.953 45.9147 142 43.9679L143 41.9759L144 39.9839C145.294 37.7937 147.109 39.0939 146 40.9799L145 42.9719ZM156 49.9437C155.63 50.613 155 50.4913 155 49.9437C155 49.457 155.583 49.4953 157 48.9478L156 49.9437ZM157 45.9598C156.569 45.9598 156.569 45.6331 157 44.9638L160 39.9839C160.986 38.2804 162.924 39.3372 162 40.9799L160 42.9719C158.891 44.7362 157.739 45.9598 157 45.9598ZM175 42.9719C174.384 42.9719 174 43.3595 174 43.9679C174 44.2112 173.877 44.7813 174 44.9638C173.137 46.424 171.953 45.9147 173 43.9679L174 41.9759L175 39.9839C176.294 37.7937 178.109 39.0939 177 40.9799L175 42.9719Z" fill="#766458"/>
<path d="M80 41H62V42H80V41Z" fill="#766458"/>
<path d="M219 41H201V42H219V41Z" fill="#766458"/>
<path d="M100 0H105L104 28H95L94 16L93 28H84L83 0H88V23H89L92 0H96L99 23H100V0Z" fill="#81B3D3"/>
<path d="M120 23V28H107V0H120V5H112V12H118V16H112V23H120Z" fill="#81B3D3"/>
<path d="M132 23V28H121V0H126V23H132Z" fill="#81B3D3"/>
<path d="M142 18L147 17V25C147 26.6214 145.555 28 144 28H137C135.383 28 134 26.559 134 25V3C134 1.37862 135.383 0 137 0H144C145.555 0 147 1.37862 147 3V9L142 10V5H139V23H142V18Z" fill="#81B3D3"/>
<path d="M160 0C161.555 0 163 1.375 163 3V25C163 26.625 161.555 28 160 28H153C151.383 28 150 26.5625 150 25V3C150 1.375 151.383 0 153 0H160ZM158 5H155V23H158V5Z" fill="#81B3D3"/>
<path d="M178 0H183V28H178V14L176 21H172L170 14V28H165V0H170L174 14L178 0Z" fill="#81B3D3"/>
<path d="M198 23V28H185V0H198V5H190V12H196V16H190V23H198Z" fill="#81B3D3"/>
<path d="M27 96C24.7826 94.1679 21.9565 93 19 93C16.7826 93 14 94.4351 14 97C14 99.687 17.9674 100.389 20 101L23 102C29.4058 103.893 34 106.611 34 114C34 118.519 32.6341 123.947 29 127C25.3659 130.053 20.6196 131 16 131C10.2101 131 4.68116 129.237 0 126L5 116C8.01812 118.626 11.8732 121 16 121C18.8333 121 21 119.176 21 116C21 112.641 16.587 111.733 14 111C6.48551 108.802 2 106.855 2 98C2 88.7176 8.76087 83 18 83C22.6196 83 27.9348 84.6794 32 87L27 96Z" fill="white"/>
<path d="M56 95V103H69V113H56V121H70V131H44V85H70V95H56Z" fill="white"/>
<path d="M79 85H96C108.683 85 119 95.0856 119 108C119 120.914 108.622 131 96 131H79V85ZM91 121H94C101.073 121 107 116.917 107 108C107 99.7594 101.622 95 94 95H91V121Z" fill="white"/>
<path d="M176 107C176 121.86 165.783 132 151 132C136.217 132 125 121.86 125 107C125 93.1228 137.757 83 151 83C164.243 83 176 93.1228 176 107ZM137 107C137 114.921 142.855 120 150 120C157.145 120 163 114.921 163 107C163 100.675 157.145 95 150 95C142.917 95 137 100.675 137 107Z" fill="white"/>
<path d="M182 85H194L216 113V85H228V131H216L194 103V131H182V85Z" fill="white"/>
<path d="M250 123L247 131H234L252 85H265L282 131H269L266 123H250ZM258 99L253 114H263L258 99Z" fill="white"/>
<path d="M65.8846 176C70.7166 174.391 71.5982 168 66.8918 168C65.5739 168 63.9301 169.205 62.8633 171L56.8207 182C56.5069 182.495 56.1901 182.567 55.8136 183C54.182 180.772 54.4988 177.485 56.8207 176L55.8136 175C50.7933 178.156 52.5029 187 60.8491 187C67.9402 187 70.4656 179.033 65.8846 176ZM59.842 185C58.3987 185 57.762 184.495 56.8207 184C57.2599 183.505 57.4513 183.619 57.8278 183L61.8562 176H62.8633C68.4484 177.176 65.6153 185 59.842 185ZM62.8633 174L64.8775 171C66.6346 168.029 69.0912 169.772 67.8989 172C66.9576 173.733 65.3107 173.938 62.8633 174Z" fill="white"/>
<path d="M84.8191 182.98C84.4506 184.321 85.2928 185.973 86.8279 185.973C87.7489 185.973 89.6789 184.892 90.8455 183.977C90.9683 184.892 91.6877 185.973 92.8544 185.973C94.0824 185.973 94.5168 185.196 95.8676 183.977C95.622 185.196 96.7098 185.973 97.8764 185.973C99.1659 185.973 100.789 185.014 101.894 183.977C101.648 185.196 102.429 185.973 103.903 185.973C105.806 185.973 107.965 184.176 109.929 181.982C109.929 181.921 109.929 181.045 109.929 180.984C111.219 179.521 112.083 178.09 112.943 176.993C112.022 179.37 112.14 183.977 109.929 183.977C109.131 183.977 108.925 182.98 108.925 182.98L107.921 183.977C107.921 183.977 107.78 185.973 109.929 185.973C110.175 185.973 110.688 186.034 110.934 185.973C112.653 185.729 114.482 184.26 115.956 182.98C116.017 184.503 117.066 185.973 118.969 185.973C121.609 185.973 124.097 184.176 126 181.982C125.816 181.677 125.303 181.106 124.996 180.984C123.338 182.935 121.631 183.977 119.974 183.977C118.561 183.977 116.921 183.81 117.965 181.982L118.969 180.984C120.443 181.594 123.215 181.975 124.996 178.989V177.991C126.224 175.858 124.89 174 122.987 174C121.083 174 119.952 175.287 118.969 176.993L116.96 180.984H115.956C115.096 181.959 113.864 182.37 112.943 182.98C113.679 180.786 113.478 177.923 114.951 174.998L113.947 174C112.965 175.341 111.013 178.546 108.925 180.984C107.267 182.935 104.947 183.977 103.903 183.977C103.412 183.977 103.35 183.894 103.903 182.98L108.925 174H106.916L102.898 181.982C101.118 183.567 99.3107 184.16 98.8808 183.977C98.3282 183.734 98.5738 182.47 98.8808 181.982L103.903 174.998H101.894L97.8764 180.984C97.815 180.923 97.9378 181.045 97.8764 180.984C96.2186 182.935 93.8982 183.977 92.8544 183.977C92.3631 183.977 92.3017 183.894 92.8544 182.98L96.872 176.993H94.8632C94.9246 176.018 94.3894 174 92.8544 174C91.6263 174 89.8192 175.287 88.8367 176.993L86.8279 180.984C86.7051 180.862 85.9463 181.045 85.8235 180.984C84.1656 182.935 82.4593 183.977 80.8014 183.977C79.3892 183.977 78.7532 183.81 79.797 181.982L81.8058 177.991C83.1567 175.675 85.2269 175.614 83.8146 177.991V178.989H85.8235V177.991C87.0515 175.858 85.7181 174 83.8146 174C81.9112 174 80.7794 175.287 79.797 176.993L77.7882 180.984C77.7268 180.923 76.8452 181.045 76.7838 180.984C75.1259 182.935 73.4196 184.975 71.7617 184.975C70.3494 184.975 69.7134 183.81 70.7573 181.982V180.984C72.2309 181.594 75.0031 181.975 76.7838 178.989V177.991C78.0118 175.858 76.6784 174 74.7749 174C72.8715 174 71.7397 175.287 70.7573 176.993L68.7485 180.984C67.2748 183.422 67.9942 185.973 70.7573 185.973C72.7836 185.973 75.1259 184.564 76.7838 182.98C76.7224 184.564 77.8321 185.973 79.797 185.973C81.7619 185.851 83.1612 184.381 84.8191 182.98ZM120.978 176.993C122.329 174.677 124.399 175.614 122.987 177.991V178.989C121.882 180.878 119.829 180.291 118.969 179.986L120.978 176.993ZM87.8323 182.98L90.8455 177.991C92.0736 175.858 95.0254 175.919 93.8588 177.991L91.85 180.984C90.4377 183.178 88.7533 183.977 87.8323 183.977C87.3411 183.916 87.2797 183.894 87.8323 182.98ZM72.7661 176.993C74.117 174.677 76.1872 175.614 74.7749 177.991V178.989C73.6697 180.878 72.6213 180.291 71.7617 179.986L72.7661 176.993Z" fill="white"/>
<path d="M151.088 185C153.643 185 156.158 183.157 158 181C157.822 180.7 157.31 180.12 157.013 180C155.408 181.918 153.68 184 152.075 184C150.709 184 149.09 182.798 150.1 181H151.088C152.514 181.599 155.289 180.936 157.013 178V177C158.201 174.903 156.88 174 155.038 174C153.196 174 152.039 174.322 151.088 176L148.126 180C148.126 180 148.126 180.06 148.126 180C146.521 181.918 145.186 184 144.176 184C143.7 184 143.641 182.899 144.176 182L147.138 177C148.089 175.262 147.399 174 146.151 174C145.2 174 144.317 173.801 143.188 175L146.151 169H144.176L137.264 180C137.204 179.94 137.323 180.06 137.264 180C135.659 181.918 134.324 184 133.314 184C132.839 184 131.792 182.899 132.327 182L137.264 174H139.239L140.226 173H138.251L140.226 169H138.251L136.276 173H134.301L133.314 174H135.289L130.352 182C129.401 183.678 130.484 185 132.327 185C133.456 185 135.028 184.079 136.276 183L135.289 185H137.264L141.213 179C144.66 174.625 146.114 175.322 145.163 177L142.201 182C141.25 183.678 141.346 185 143.188 185C144.555 185 146.699 183.438 148.126 182C148.126 183.498 149.246 185 151.088 185ZM153.063 177C154.37 174.723 156.404 174.663 155.038 177V178C153.968 179.858 151.92 179.3 151.088 179L153.063 177Z" fill="white"/>
<path d="M223 181.025C221.344 183.029 219.043 184.03 218 184.03C217.509 184.03 217.448 183.968 218 183.028L226 169.002H224L220 175.013C219.571 174.324 218.982 174.011 218 174.011C216.773 174.011 214.982 175.263 214 177.017L212 181.025C211.939 181.025 212 181.025 212 181.025C210.344 183.029 208.043 184.03 207 184.03C206.509 184.03 206.448 183.968 207 183.028L210 177.017C210.982 175.2 210.288 174.011 209 174.011C208.018 174.011 207.166 174.825 206 176.015L207 174.011H204L201 181.025C200.939 180.962 200.123 181.025 200 181.025C198.344 183.029 197.043 184.03 196 184.03C195.509 184.03 195.448 183.968 196 183.028L199 176.015H198C198.061 175.013 197.534 174.011 196 174.011C194.773 174.011 192.982 175.263 192 177.017L189 181.025C187.344 183.029 186.043 184.03 185 184.03C184.509 184.03 184.448 183.968 185 183.028L187 179.021C187.798 177.58 187.736 176.955 187 176.015L185 174.011C184.693 173.573 185.571 173.448 186 173.009L184 171.006C182.65 172.196 183.202 173.948 184 175.013C182.957 176.517 181.534 179.208 180 181.025C180.061 181.087 179.939 180.962 180 181.025C178.098 183.28 176.84 184.218 175 185.032L178 180.023H175V181.025C173.773 183.217 172.84 184.03 171 184.03C169.405 184.03 168.589 182.466 170 180.023L171 179.021C171.429 179.084 171.509 179.021 172 179.021C180.282 179.021 184.301 168 177 168C175.712 168 174.043 169.189 173 171.006L170 177.017C168.65 176.265 168 175.327 168 174.011C168 172.884 168.018 171.82 169 171.006L168 169.002C166.344 170.192 166 172.383 166 174.011C166 175.891 167.098 177.017 169 178.019L168 180.023C166.344 182.904 166.687 186.034 170 186.034C170.982 186.034 172.325 185.471 173 185.032L172 186.034C168.871 187.036 167 188.225 167 190.042C167 192.297 170.344 192.986 172 190.042L174 187.036C176.393 186.284 178.423 184.094 181 181.025C180.939 180.962 181.061 181.15 181 181.025C182.043 179.772 183.221 178.458 185 176.015V177.017C185.307 177.393 185.307 177.518 185 178.019L183 182.027C182.018 183.781 182.098 186.034 184 186.034C185.166 186.034 186.773 185.158 188 184.03C188 185.095 188.65 186.034 190 186.034C190.92 186.034 191.834 184.97 193 184.03C193.123 184.97 193.834 186.034 195 186.034C196.104 186.034 197.834 185.095 199 184.03L198 185.032H200L204 179.021C207.558 174.448 209.043 175.263 208 177.017L205 182.027C204.018 183.781 205.098 186.034 207 186.034C208.227 186.034 209.65 185.221 211 184.03C210.877 185.221 211.589 186.034 213 186.034C213.92 186.034 214.834 184.97 216 184.03C216.123 184.97 216.834 186.034 218 186.034C219.902 186.034 222.037 183.28 224 181.025C223.755 180.899 223.307 181.15 223 181.025ZM175 172.008C175.675 170.817 176.387 170.004 177 170.004C180.681 170.004 178.074 178.019 172 178.019L175 172.008ZM170 190.042C169.509 190.919 169 190.668 169 190.042C169 189.415 169.221 188.727 171 188.038L170 190.042ZM195 181.025C193.589 183.28 191.92 184.03 191 184.03C190.509 184.03 190.448 183.968 191 183.028L194 177.017C195.227 174.825 197.166 175.889 196 178.019L195 181.025ZM217 181.025C215.589 183.405 213.982 184.03 213 184.03C212.509 184.03 212.448 183.968 213 183.028L216 177.017C217.227 174.825 220.166 175.889 219 178.019L217 181.025Z" fill="white"/>
<path d="M145 203.025C143.343 205.029 142.043 206.03 141 206.03C140.509 206.03 139.448 205.968 140 205.028L144 199.017C144.982 197.2 144.289 196.011 143 196.011C142.018 196.011 140.166 196.825 139 198.015L140 196.011H138L134 203.025C133.877 202.962 134.123 203.087 134 203.025C132.957 204.215 131.166 205.028 130 205.028L132 201.021C133.412 198.515 132.209 196.011 130 196.011C128.22 196.011 127.35 196.637 126 199.017L125 201.021L124 203.025C123.939 202.962 123.061 203.087 123 203.025C121.097 205.28 119.841 206.218 118 207.032L124 196.011H122L118 203.025C116.22 204.716 114.43 206.218 114 206.03C113.448 205.78 113.693 204.528 114 204.027L119 196.011H117L113 203.025C112.939 202.962 113.061 203.087 113 203.025H112C110.343 205.029 109.043 206.03 108 206.03C107.509 206.03 107.448 205.968 108 205.028L111 199.017C111.982 197.2 111.289 196.011 110 196.011C109.018 196.011 108.166 196.825 107 198.015L108 196.011H105L102 203.025C101.939 202.962 101.123 203.025 101 203.025C99.343 205.029 98.0433 206.03 97 206.03C96.509 206.03 96.4477 205.968 97 205.028L100 198.015H99C99.0614 197.013 97.5343 196.011 96 196.011C94.7726 196.011 92.9819 197.263 92 199.017L90 203.025C89.8159 202.899 90.1227 203.087 90 203.025H89C87.343 205.029 85.2708 206.03 83 206.03C81.4043 206.03 80.5884 204.466 82 202.023L83 201.021C83.4296 201.084 83.509 201.021 84 201.021C86.4549 201.021 89.1588 200.271 91 197.013C91.6751 195.823 92 194.947 92 194.008C92 191.878 90.7184 190 89 190C87.7112 190 86.0433 191.189 85 193.006L82 199.017C80.6498 198.265 80 197.327 80 196.011C80 194.884 80.0181 193.82 81 193.006L80 191.002C78.343 192.192 78 194.383 78 196.011C78 197.891 79.0975 199.017 81 200.019L80 202.023C78.343 204.904 79.6859 208.034 83 208.034C85.5776 208.034 87.4043 206.595 89 205.028C88.509 206.532 89.343 208.034 91 208.034C91.9206 208.034 92.8339 206.97 94 206.03C94.1227 206.97 94.8339 208.034 96 208.034C97.1047 208.034 98.8339 207.095 100 206.03L99 208.034H101L105 201.021C108.56 196.448 110.043 197.263 109 199.017L106 204.027C105.018 205.781 105.097 208.034 107 208.034C108.227 208.034 109.65 207.283 111 206.03C110.693 207.346 111.834 208.034 113 208.034C114.105 208.034 114.957 207.033 116 206.03L115 208.034C111.87 208.974 110 210.225 110 212.042C110 214.297 113.343 214.986 115 212.042L117 209.036C118.964 208.41 120.975 207.033 123 205.028C122.693 208.349 126.361 209.413 129 206.03H130C130.859 206.03 131.957 205.655 133 205.028L131 207.032H134L137 201.021C140.56 196.448 142.043 197.263 141 199.017L138 204.027C137.018 205.781 138.097 208.034 140 208.034C141.903 208.034 144.036 205.28 146 203.025C145.939 202.837 145.307 203.15 145 203.025ZM87 194.008C87.6751 192.817 88.3863 192.004 89 192.004C89.8592 192.004 91 192.129 91 193.006C91 195.198 87.6209 200.019 84 200.019L87 194.008ZM95 203.025C93.5884 205.28 92.9206 206.03 92 206.03C91.509 206.03 91.4477 205.968 92 205.028L95 199.017C96.2274 196.825 98.1661 197.889 97 200.019L95 203.025ZM113 212.042C112.509 212.919 112 212.668 112 212.042C112 211.415 112.22 210.727 114 210.038L113 212.042ZM129 203.025C128.264 203.025 127 203.212 127 204.027C127 204.34 127.816 204.778 128 205.028C126.895 206.97 123.65 206.532 125 204.027L127 201.021L128 199.017C129.657 196.198 132.412 197.576 131 200.019L129 203.025Z" fill="white"/>
<path d="M199 202.98C198.878 202.602 198.305 203.043 198 202.98C197.146 203.988 195.915 204.347 195 204.977C195.732 202.709 195.535 200.014 197 196.99L195 195.992C194.024 197.378 192.075 200.461 190 202.98C188.352 204.996 187.037 205.975 186 205.975C185.512 205.975 185 206.111 185 204.977V203.979C186.648 204.168 187.902 202.936 189 200.984L190 199.985C192.136 196.143 188.38 194.723 186 196.99L189 191H187L181 202.98C180.878 202.854 180.122 203.043 180 202.98C178.352 204.996 176.648 205.975 175 205.975C173.597 205.975 171.963 205.868 173 203.979L176 198.987C177.342 196.593 179.403 197.529 178 199.985H180C181.22 197.781 179.892 195.992 178 195.992C176.108 195.992 174.976 197.223 174 198.987L171 202.98C170.939 202.98 171 202.98 171 202.98C169.352 204.996 168.037 205.975 167 205.975C166.512 205.975 166.451 205.922 167 204.977L172 195.992H169L165 203.979C163.23 205.616 162.427 206.164 162 205.975C161.451 205.723 161.695 204.483 162 203.979L166 195.992H164L160 203.979C159.512 204.42 158.427 204.599 158 204.977C158.732 202.709 158.535 200.014 160 196.99L158 195.992C157.024 197.378 152.136 204.454 150 206.974C150.183 207.289 150.695 207.72 151 207.972C152.342 206.397 156.207 200.121 157 198.987C156.085 201.443 157.197 205.975 155 205.975C154.207 205.975 154 204.977 154 204.977L152 205.975C152 205.975 152.864 207.972 155 207.972C155.244 207.972 154.756 208.035 155 207.972C156.159 207.783 157.902 206.794 159 205.975C159 206.92 159.024 207.972 160 207.972C161.281 207.972 162.902 207.046 164 205.975C163.756 207.235 164.535 207.972 166 207.972C167.465 207.972 169.474 206.552 171 204.977C171 206.552 172.108 207.972 174 207.972C175.892 207.972 177.352 206.426 179 204.977L178 207.972H180L183 202.98V204.977C183 206.993 183.108 207.972 185 207.972C186.892 207.972 189.047 206.246 191 203.979C192.342 202.404 193.146 200.121 194 198.987C193.085 201.443 194.197 205.975 192 205.975C191.207 205.975 191 204.977 191 204.977L189 205.975C189 205.975 189.864 207.972 192 207.972C192.244 207.972 192.756 208.035 193 207.972C195.319 207.531 197.291 205.059 199 202.98ZM184 201.982V199.985C186.685 196.143 188.854 197.538 188 198.987L187 200.984C186.329 202.243 184.549 203.557 184 201.982Z" fill="white"/>
<path d="M200 205C199.182 205 198 205.182 198 206C198 206.818 199.114 208 200 208C200.818 208 201 206.886 201 206C201 205.182 200.818 205 200 205Z" fill="white"/>
<path d="M199 205H201L209 192H207L199 205Z" fill="white"/>
<path d="M50.0343 169.969C50.0343 170.156 50.0974 170.77 50.0343 170.957C49.9712 171.144 49.173 170.832 49.0468 170.957C48.9205 171.081 49.2362 171.82 49.0468 171.945C48.8574 172.007 48.3118 171.945 48.0592 171.945C47.7436 171.945 47.3242 172.069 47.0717 171.945C46.8192 171.82 47.2611 171.144 47.0717 170.957C46.8823 170.77 46.2104 171.206 46.0842 170.957C46.021 170.708 46.0842 170.28 46.0842 169.969C46.0842 169.409 45.8948 168.492 46.0842 167.994C46.2736 167.558 46.6929 167.317 47.0717 167.006C47.198 166.881 47.8698 167.13 48.0592 167.006C48.2486 166.881 47.8698 166.08 48.0592 166.018C48.2486 165.956 48.9205 166.08 49.0468 166.018C49.173 165.956 48.9836 166.08 49.0468 166.018L50.0343 167.006C49.908 167.068 49.2362 167.869 49.0468 167.994C48.8574 168.056 49.2362 167.869 49.0468 167.994C48.8574 168.118 48.1855 167.807 48.0592 167.994C47.933 168.18 48.0592 168.732 48.0592 168.981C48.5012 168.981 48.7311 168.732 49.0468 168.981C49.4256 169.168 50.0343 169.533 50.0343 169.969ZM54.9719 169.969C54.9719 170.156 55.0351 170.77 54.9719 170.957C54.9088 171.144 54.1107 170.832 53.9844 170.957C53.8581 171.081 54.1738 171.82 53.9844 171.945C53.795 172.007 53.2494 171.945 52.9969 171.945C52.6812 171.945 52.2619 172.069 52.0094 171.945C51.7568 171.82 52.1988 171.144 52.0094 170.957C51.8831 170.77 51.1481 171.206 51.0218 170.957C50.9587 170.708 51.0218 170.28 51.0218 169.969C51.0218 169.409 50.8324 168.492 51.0218 167.994C51.2112 167.558 51.6306 167.317 52.0094 167.006C52.1356 166.881 52.8075 167.13 52.9969 167.006C53.1863 166.881 52.8075 166.08 52.9969 166.018C53.1863 165.956 53.8581 166.08 53.9844 166.018C54.1107 165.956 53.9213 166.08 53.9844 166.018L54.9719 167.006C54.8457 167.068 54.1738 167.869 53.9844 167.994C53.795 168.056 54.1738 167.869 53.9844 167.994C53.795 168.118 53.1231 167.807 52.9969 167.994C52.8706 168.18 52.9969 168.732 52.9969 168.981C53.4388 168.981 53.6687 168.732 53.9844 168.981C54.3001 169.168 54.9719 169.533 54.9719 169.969Z" fill="white"/>
<path d="M216.971 206.031C216.971 205.844 216.915 205.23 216.971 205.043C217.028 204.856 216.859 205.168 216.971 205.043C217.084 204.919 217.787 204.18 217.956 204.055C218.125 203.993 217.731 204.055 217.956 204.055C218.237 204.055 218.716 203.931 218.941 204.055C219.165 204.18 219.757 204.856 219.925 205.043C220.094 205.23 219.813 204.794 219.925 205.043C219.981 205.292 219.925 205.72 219.925 206.031C219.925 206.591 220.094 207.508 219.925 208.006C219.757 208.442 219.278 208.683 218.941 208.994C218.828 209.119 218.125 208.87 217.956 208.994C217.787 209.119 218.125 209.92 217.956 209.982C217.787 210.044 218.068 209.92 217.956 209.982C217.844 210.044 217.028 209.92 216.971 209.982V208.994C217.084 208.932 216.803 208.131 216.971 208.006C217.14 207.944 217.787 208.131 217.956 208.006C218.125 207.882 217.844 208.193 217.956 208.006C218.068 207.82 217.956 207.268 217.956 207.019C217.563 207.019 217.252 207.268 216.971 207.019C216.691 206.832 216.971 206.467 216.971 206.031ZM212.049 206.031C212.049 205.844 211.992 205.23 212.049 205.043C212.105 204.856 212.921 205.168 213.033 205.043C213.146 204.919 212.865 204.18 213.033 204.055C213.202 203.993 213.793 204.055 214.018 204.055C214.299 204.055 213.793 203.931 214.018 204.055C214.242 204.18 214.834 204.856 215.002 205.043C215.115 205.23 214.89 204.794 215.002 205.043C215.058 205.292 215.002 205.72 215.002 206.031C215.002 206.591 215.171 207.508 215.002 208.006C214.834 208.442 214.355 208.683 214.018 208.994C213.905 209.119 214.186 208.87 214.018 208.994C213.849 209.119 213.202 209.92 213.033 209.982C212.865 210.044 213.146 209.92 213.033 209.982C212.921 210.044 213.089 209.92 213.033 209.982L212.049 208.994C212.217 208.932 211.88 208.131 212.049 208.006C212.217 207.944 212.865 208.131 213.033 208.006C213.202 207.882 212.921 208.193 213.033 208.006C213.146 207.82 214.018 207.268 214.018 207.019C213.625 207.019 213.314 207.268 213.033 207.019C212.696 206.832 212.049 206.467 212.049 206.031Z" fill="white"/>
</svg>
